<?xml version="1.0" encoding="UTF-8" standalone="no"?>
<!-- Created with Inkscape (http://www.inkscape.org/) -->

<svg
   xmlns:dc="http://purl.org/dc/elements/1.1/"
   xmlns:cc="http://creativecommons.org/ns#"
   xmlns:rdf="http://www.w3.org/1999/02/22-rdf-syntax-ns#"
   xmlns:svg="http://www.w3.org/2000/svg"
   xmlns="http://www.w3.org/2000/svg"
   xmlns:xlink="http://www.w3.org/1999/xlink"
   xmlns:sodipodi="http://sodipodi.sourceforge.net/DTD/sodipodi-0.dtd"
   xmlns:inkscape="http://www.inkscape.org/namespaces/inkscape"
   width="54.006866mm"
   height="155.68306mm"
   viewBox="0 0 54.006867 155.68306"
   version="1.1"
   id="svg8"
   inkscape:version="0.92.4 5da689c313, 2019-01-14"
   sodipodi:docname="bookmark.svg"
   inkscape:export-filename="/tmp/dataeng_bookmark.png"
   inkscape:export-xdpi="510.56"
   inkscape:export-ydpi="510.56"
   style="enable-background:new">
  <defs
     id="defs2">
    <clipPath
       id="clipPath866"
       clipPathUnits="userSpaceOnUse">
      <path
         inkscape:connector-curvature="0"
         id="path864"
         d="M 0,0 H 441.144 V 153.144 H 0 Z" />
    </clipPath>
    <radialGradient
       id="radialGradient876"
       spreadMethod="pad"
       gradientTransform="matrix(99.020656,0,0,86.660173,-125.8465,196.12056)"
       gradientUnits="userSpaceOnUse"
       r="1"
       cy="0"
       cx="0"
       fy="0"
       fx="0">
      <stop
         id="stop872"
         offset="0"
         style="stop-opacity:1;stop-color:#ffffff" />
      <stop
         id="stop874"
         offset="1"
         style="stop-opacity:1;stop-color:#bdbcbc" />
    </radialGradient>
    <clipPath
       id="clipPath886"
       clipPathUnits="userSpaceOnUse">
      <path
         inkscape:connector-curvature="0"
         id="path884"
         d="M 0,0 H 440.595 V 153.144 H 0 Z" />
    </clipPath>
    <clipPath
       id="clipPath894"
       clipPathUnits="userSpaceOnUse">
      <path
         inkscape:connector-curvature="0"
         id="path892"
         d="M -1443.13,571.375 H 1621 v -938.438 h -3064.13 z" />
    </clipPath>
    <clipPath
       id="clipPath898"
       clipPathUnits="userSpaceOnUse">
      <path
         inkscape:connector-curvature="0"
         id="path896"
         d="M 451.05,-345.811 H -782.059 V 455.1 H 451.05 Z" />
    </clipPath>
    <clipPath
       id="clipPath902"
       clipPathUnits="userSpaceOnUse">
      <path
         inkscape:connector-curvature="0"
         id="path900"
         d="M -509.075,254.008 H 686.294 V -52.2555 H -509.075 Z" />
    </clipPath>
    <clipPath
       id="clipPath906"
       clipPathUnits="userSpaceOnUse">
      <path
         inkscape:connector-curvature="0"
         id="path904"
         d="M 425.627,254.008 H 1621 V -52.2555 H 425.627 Z" />
    </clipPath>
    <clipPath
       id="clipPath2332"
       clipPathUnits="userSpaceOnUse">
      <path
         inkscape:connector-curvature="0"
         id="path2330"
         d="M 0,153.144 H 441.144 V 0 H 0 Z" />
    </clipPath>
    <clipPath
       id="clipPath2396"
       clipPathUnits="userSpaceOnUse">
      <path
         inkscape:connector-curvature="0"
         id="path2394"
         d="m 59.632,98.89 c 0,-22.475 16.588,-41.07 38.189,-44.223 v 0 12.856 C 83.254,70.532 72.303,83.434 72.303,98.89 v 0 c 0,17.691 14.34,32.032 32.03,32.032 v 0 c 17.69,0 32.03,-14.341 32.03,-32.032 v 0 c 0,-15.458 -10.95,-28.358 -25.519,-31.367 v 0 -12.856 c 21.602,3.153 38.191,21.748 38.191,44.223 v 0 c 0,24.689 -20.014,44.703 -44.702,44.703 v 0 c -24.687,0 -44.701,-20.014 -44.701,-44.703" />
    </clipPath>
    <radialGradient
       id="radialGradient2410"
       spreadMethod="pad"
       gradientTransform="matrix(16.310361,0,0,16.310361,-149.10764,83.513244)"
       gradientUnits="userSpaceOnUse"
       r="1"
       cy="0"
       cx="0"
       fy="0"
       fx="0">
      <stop
         id="stop2402"
         offset="0"
         style="stop-opacity:1;stop-color:#fefefe" />
      <stop
         id="stop2404"
         offset="0.624242"
         style="stop-opacity:1;stop-color:#fefefe" />
      <stop
         id="stop2406"
         offset="0.73011945"
         style="stop-opacity:1;stop-color:#d2d1d2" />
      <stop
         id="stop2408"
         offset="1"
         style="stop-opacity:1;stop-color:#d2d1d2" />
    </radialGradient>
    <clipPath
       id="clipPath2420"
       clipPathUnits="userSpaceOnUse">
      <path
         inkscape:connector-curvature="0"
         id="path2418"
         d="m 59.632,98.89 c 0,-22.475 16.588,-41.07 38.189,-44.223 v 0 12.856 C 83.254,70.532 72.303,83.434 72.303,98.89 v 0 c 0,17.691 14.34,32.032 32.03,32.032 v 0 c 17.69,0 32.03,-14.341 32.03,-32.032 v 0 c 0,-15.458 -10.95,-28.358 -25.519,-31.367 v 0 -12.856 c 21.602,3.153 38.191,21.748 38.191,44.223 v 0 c 0,24.689 -20.014,44.703 -44.702,44.703 v 0 c -24.687,0 -44.701,-20.014 -44.701,-44.703" />
    </clipPath>
    <linearGradient
       id="linearGradient2430"
       spreadMethod="pad"
       gradientTransform="matrix(0,-31.371015,31.371015,0,-153.73785,164.97082)"
       gradientUnits="userSpaceOnUse"
       y2="0"
       x2="1"
       y1="0"
       x1="0">
      <stop
         id="stop2426"
         offset="0"
         style="stop-opacity:1;stop-color:#605d5e" />
      <stop
         id="stop2428"
         offset="1"
         style="stop-opacity:1;stop-color:#bebdbd" />
    </linearGradient>
    <clipPath
       id="clipPath2440"
       clipPathUnits="userSpaceOnUse">
      <path
         inkscape:connector-curvature="0"
         id="path2438"
         d="m 110.844,116.669 c 7.245,-2.655 12.416,-9.612 12.416,-17.779 v 0 c 0,-8.164 -5.171,-15.122 -12.416,-17.777 v 0 -7.987 c 11.526,2.905 20.062,13.338 20.062,25.764 v 0 c 0,12.428 -8.536,22.861 -20.062,25.766 v 0 z" />
    </clipPath>
    <linearGradient
       id="linearGradient2450"
       spreadMethod="pad"
       gradientTransform="matrix(0,-18.178655,18.178655,0,-143.27205,92.596596)"
       gradientUnits="userSpaceOnUse"
       y2="0"
       x2="1"
       y1="0"
       x1="0">
      <stop
         id="stop2446"
         offset="0"
         style="stop-opacity:1;stop-color:#605d5e" />
      <stop
         id="stop2448"
         offset="1"
         style="stop-opacity:1;stop-color:#bebdbd" />
    </linearGradient>
    <clipPath
       id="clipPath2460"
       clipPathUnits="userSpaceOnUse">
      <path
         inkscape:connector-curvature="0"
         id="path2458"
         d="M 98.877,124.875 V 54.531 c 1.789,-0.22 3.61,-0.342 5.456,-0.342 v 0 c 1.847,0 3.668,0.122 5.456,0.342 v 0 70.37 c -1.745,0.361 -3.548,0.561 -5.4,0.561 v 0 c -1.892,0 -3.733,-0.211 -5.512,-0.587" />
    </clipPath>
    <linearGradient
       id="linearGradient2470"
       spreadMethod="pad"
       gradientTransform="matrix(0,-25.14356,25.14356,0,-149.10763,99.277138)"
       gradientUnits="userSpaceOnUse"
       y2="0"
       x2="1"
       y1="0"
       x1="0">
      <stop
         id="stop2466"
         offset="0"
         style="stop-opacity:1;stop-color:#605d5e" />
      <stop
         id="stop2468"
         offset="1"
         style="stop-opacity:1;stop-color:#bebdbd" />
    </linearGradient>
    <clipPath
       id="clipPath2480"
       clipPathUnits="userSpaceOnUse">
      <path
         inkscape:connector-curvature="0"
         id="path2478"
         d="M 0,153.144 H 441.144 V 0 H 0 Z" />
    </clipPath>
    <clipPath
       id="clipPath2528"
       clipPathUnits="userSpaceOnUse">
      <path
         inkscape:connector-curvature="0"
         id="path2526"
         d="M 0,153.144 H 441.144 V 0 H 0 Z" />
    </clipPath>
    <linearGradient
       id="linearGradient5874"
       inkscape:collect="always">
      <stop
         id="stop5876"
         offset="0"
         style="stop-color:#000000;stop-opacity:1;" />
      <stop
         id="stop5878"
         offset="1"
         style="stop-color:#000000;stop-opacity:0;" />
    </linearGradient>
    <linearGradient
       gradientUnits="userSpaceOnUse"
       y2="664.12427"
       x2="598.41638"
       y1="664.12427"
       x1="115.86857"
       id="linearGradient5880"
       xlink:href="#linearGradient5874"
       inkscape:collect="always" />
    <linearGradient
       inkscape:collect="always"
       xlink:href="#linearGradient5874"
       id="linearGradient9404"
       gradientUnits="userSpaceOnUse"
       x1="115.86857"
       y1="664.12427"
       x2="598.41638"
       y2="664.12427" />
    <linearGradient
       inkscape:collect="always"
       xlink:href="#linearGradient5874"
       id="linearGradient9406"
       gradientUnits="userSpaceOnUse"
       x1="115.86857"
       y1="664.12427"
       x2="598.41638"
       y2="664.12427" />
  </defs>
  <sodipodi:namedview
     id="base"
     pagecolor="#ffffff"
     bordercolor="#666666"
     borderopacity="1.0"
     inkscape:pageopacity="0.0"
     inkscape:pageshadow="2"
     inkscape:zoom="0.97610345"
     inkscape:cx="-98.394054"
     inkscape:cy="306.74682"
     inkscape:document-units="mm"
     inkscape:current-layer="layer2"
     showgrid="false"
     fit-margin-top="0"
     fit-margin-left="0"
     fit-margin-right="0"
     fit-margin-bottom="0"
     inkscape:window-width="1920"
     inkscape:window-height="1043"
     inkscape:window-x="0"
     inkscape:window-y="0"
     inkscape:window-maximized="1" />
  <metadata
     id="metadata5">
    <rdf:RDF>
      <cc:Work
         rdf:about="">
        <dc:format>image/svg+xml</dc:format>
        <dc:type
           rdf:resource="http://purl.org/dc/dcmitype/StillImage" />
        <dc:title></dc:title>
      </cc:Work>
    </rdf:RDF>
  </metadata>
  <g
     inkscape:groupmode="layer"
     id="layer2"
     inkscape:label="Background"
     transform="translate(186.01886,37.333895)"
     style="display:inline">
    <rect
       inkscape:export-ydpi="510.56"
       inkscape:export-xdpi="510.56"
       y="132.05978"
       x="-37.248005"
       height="53.911274"
       width="155.51128"
       id="rect5963"
       style="display:inline;opacity:1;fill:#29395b;fill-opacity:1;fill-rule:nonzero;stroke:#ffffff;stroke-width:0.06372532;stroke-linecap:butt;stroke-linejoin:round;stroke-miterlimit:4;stroke-dasharray:none;stroke-opacity:1"
       transform="rotate(90)" />
  </g>
  <g
     inkscape:label="Design"
     inkscape:groupmode="layer"
     id="layer1"
     transform="translate(186.01886,37.333895)"
     style="display:inline">
    <g
       id="g9666"
       transform="rotate(90,-108.33,40.58879)">
      <g
         transform="matrix(0.35277777,0,0,-0.35277777,-185.91409,118.39385)"
         id="g908" />
      <g
         transform="matrix(0.35277777,0,0,-0.35277777,-185.91409,118.39385)"
         id="g2212" />
      <g
         transform="matrix(0.35277777,0,0,-0.35277777,-185.91409,118.39385)"
         id="g2216">
        <g
           style="opacity:0.35000604"
           id="g2214"
           clip-path="url(#clipPath906)" />
      </g>
      <g
         transform="matrix(0.0304901,0,0,0.0304901,-305.68486,111.87152)"
         style="display:inline"
         inkscape:label="Bottom"
         id="layer3" />
      <g
         aria-label="dataengineeringpodcast.com"
         transform="matrix(0,-0.12822149,0.12822149,0,-70.540578,129.07993)"
         style="font-style:normal;font-variant:normal;font-weight:normal;font-stretch:normal;font-size:20.85925865px;line-height:25px;font-family:'Source Code Pro';-inkscape-font-specification:'Source Code Pro, Normal';font-variant-ligatures:normal;font-variant-caps:normal;font-variant-numeric:normal;font-feature-settings:normal;text-align:start;letter-spacing:0px;word-spacing:0px;writing-mode:lr-tb;text-anchor:start;fill:#000000;fill-opacity:1;stroke:none;stroke-width:1px;stroke-linecap:butt;stroke-linejoin:miter;stroke-opacity:1"
         id="flowRoot4788">
        <path
           inkscape:connector-curvature="0"
           d="m 141.74466,270.05888 c 1.25155,0 2.46139,-0.73008 3.29576,-1.58531 h 0.0626 l 0.14601,1.33499 h 1.41843 V 254.95677 H 144.957 v 3.90068 l 0.0834,1.87734 h -0.0626 c -0.87609,-0.83437 -1.81475,-1.31414 -3.02459,-1.31414 -2.39882,0 -4.6099,2.04421 -4.6099,5.33997 0,3.3792 1.75218,5.29826 4.40131,5.29826 z m 0.3546,-1.43929 c -1.87733,0 -2.98287,-1.46015 -2.98287,-3.87983 0,-2.31537 1.41843,-3.87982 3.17061,-3.87982 0.87609,0 1.75217,0.33375 2.66998,1.18898 v 5.04794 c -0.89695,1.00124 -1.85647,1.52273 -2.85772,1.52273 z"
           style="font-style:normal;font-variant:normal;font-weight:normal;font-stretch:normal;font-size:20.85925865px;font-family:'Source Code Pro';-inkscape-font-specification:'Source Code Pro, Normal';font-variant-ligatures:normal;font-variant-caps:normal;font-variant-numeric:normal;font-feature-settings:normal;text-align:start;writing-mode:lr-tb;text-anchor:start;fill:#ffffff;fill-opacity:1"
           id="path4968" />
        <path
           inkscape:connector-curvature="0"
           d="m 153.73058,270.05888 c 1.43929,0 2.87858,-0.75094 4.00498,-1.62703 h 0.0626 l 0.14601,1.37671 h 1.39757 v -6.21606 c 0,-2.52397 -1.33499,-4.17185 -4.10927,-4.17185 -1.77304,0 -3.4835,0.79266 -4.5056,1.46015 l 0.66749,1.16812 c 0.93867,-0.58406 2.23195,-1.20984 3.54608,-1.20984 1.96077,0 2.64912,1.16812 2.69084,2.54483 -5.23567,0.41719 -7.34246,1.52273 -7.34246,3.79639 0,1.81475 1.54359,2.87858 3.44178,2.87858 z m 0.45891,-1.37672 c -1.16812,0 -2.23195,-0.47976 -2.23195,-1.62702 0,-1.33499 1.335,-2.19022 5.67372,-2.54483 v 2.66999 c -1.14726,0.95952 -2.29452,1.50186 -3.44177,1.50186 z"
           style="font-style:normal;font-variant:normal;font-weight:normal;font-stretch:normal;font-size:20.85925865px;font-family:'Source Code Pro';-inkscape-font-specification:'Source Code Pro, Normal';font-variant-ligatures:normal;font-variant-caps:normal;font-variant-numeric:normal;font-feature-settings:normal;text-align:start;writing-mode:lr-tb;text-anchor:start;fill:#ffffff;fill-opacity:1"
           id="path4970" />
        <path
           inkscape:connector-curvature="0"
           d="m 169.32516,270.05888 c 1.27241,0 2.2528,-0.27118 3.17061,-0.60492 l -0.37547,-1.25156 c -0.73007,0.27117 -1.48101,0.4589 -2.44053,0.4589 -1.96077,0 -2.56569,-0.95952 -2.56569,-2.77428 v -4.81849 h 4.98536 v -1.39757 h -4.98536 v -3.25404 h -1.41843 l -0.22945,3.25404 -2.9203,0.1043 v 1.29327 h 2.85772 v 4.79763 c 0,2.50312 0.95952,4.19272 3.92154,4.19272 z"
           style="font-style:normal;font-variant:normal;font-weight:normal;font-stretch:normal;font-size:20.85925865px;font-family:'Source Code Pro';-inkscape-font-specification:'Source Code Pro, Normal';font-variant-ligatures:normal;font-variant-caps:normal;font-variant-numeric:normal;font-feature-settings:normal;text-align:start;writing-mode:lr-tb;text-anchor:start;fill:#ffffff;fill-opacity:1"
           id="path4972" />
        <path
           inkscape:connector-curvature="0"
           d="m 178.7454,270.05888 c 1.43928,0 2.87857,-0.75094 4.00497,-1.62703 h 0.0626 l 0.14602,1.37671 h 1.39757 v -6.21606 c 0,-2.52397 -1.335,-4.17185 -4.10928,-4.17185 -1.77304,0 -3.48349,0.79266 -4.5056,1.46015 l 0.6675,1.16812 c 0.93866,-0.58406 2.23194,-1.20984 3.54607,-1.20984 1.96077,0 2.64913,1.16812 2.69085,2.54483 -5.23568,0.41719 -7.34246,1.52273 -7.34246,3.79639 0,1.81475 1.54358,2.87858 3.44178,2.87858 z m 0.4589,-1.37672 c -1.16812,0 -2.23194,-0.47976 -2.23194,-1.62702 0,-1.33499 1.33499,-2.19022 5.67372,-2.54483 v 2.66999 c -1.14726,0.95952 -2.29452,1.50186 -3.44178,1.50186 z"
           style="font-style:normal;font-variant:normal;font-weight:normal;font-stretch:normal;font-size:20.85925865px;font-family:'Source Code Pro';-inkscape-font-specification:'Source Code Pro, Normal';font-variant-ligatures:normal;font-variant-caps:normal;font-variant-numeric:normal;font-feature-settings:normal;text-align:start;writing-mode:lr-tb;text-anchor:start;fill:#ffffff;fill-opacity:1"
           id="path4974" />
        <path
           inkscape:connector-curvature="0"
           d="m 193.00498,270.05888 c 1.62702,0 2.9203,-0.54235 3.92154,-1.20984 l -0.62578,-1.1264 c -0.9178,0.58406 -1.87733,0.95952 -3.08717,0.95952 -2.10678,0 -3.7338,-1.16811 -3.9424,-3.46263 h 7.9891 c 0.0417,-0.27117 0.0834,-0.64664 0.0834,-1.04297 0,-2.85771 -1.71046,-4.75591 -4.63076,-4.75591 -2.7117,0 -5.17309,2.00249 -5.17309,5.29825 0,3.3792 2.41967,5.33998 5.46512,5.33998 z m -0.25031,-9.28237 c 1.73132,0 2.87858,1.0221 3.02459,3.10802 h -6.46637 c 0.31289,-2.00248 1.77304,-3.10802 3.44178,-3.10802 z"
           style="font-style:normal;font-variant:normal;font-weight:normal;font-stretch:normal;font-size:20.85925865px;font-family:'Source Code Pro';-inkscape-font-specification:'Source Code Pro, Normal';font-variant-ligatures:normal;font-variant-caps:normal;font-variant-numeric:normal;font-feature-settings:normal;text-align:start;writing-mode:lr-tb;text-anchor:start;fill:#ffffff;fill-opacity:1"
           id="path4976" />
        <path
           inkscape:connector-curvature="0"
           d="m 200.56874,269.80856 h 1.71046 v -7.07128 c 1.18898,-1.2307 2.00249,-1.83562 3.21233,-1.83562 1.66874,0 2.33624,0.91781 2.33624,2.83686 v 6.07004 h 1.71046 v -6.29949 c 0,-2.66999 -1.10554,-4.08842 -3.50436,-4.08842 -1.5853,0 -2.75342,0.85523 -3.81724,1.98163 h -0.0834 l -0.14602,-1.73132 h -1.41843 z"
           style="font-style:normal;font-variant:normal;font-weight:normal;font-stretch:normal;font-size:20.85925865px;font-family:'Source Code Pro';-inkscape-font-specification:'Source Code Pro, Normal';font-variant-ligatures:normal;font-variant-caps:normal;font-variant-numeric:normal;font-feature-settings:normal;text-align:start;writing-mode:lr-tb;text-anchor:start;fill:#ffffff;fill-opacity:1"
           id="path4978" />
        <path
           inkscape:connector-curvature="0"
           d="m 217.31058,274.48104 c 3.44178,0 5.632,-1.64788 5.632,-3.54608 0,-1.71046 -1.25156,-2.37795 -3.85896,-2.37795 h -2.27366 c -1.335,0 -2.10679,-0.37547 -2.10679,-1.16812 0,-0.47976 0.29203,-0.85523 0.79265,-1.16812 0.5632,0.25031 1.18898,0.37547 1.71046,0.37547 2.19022,0 3.92154,-1.31414 3.92154,-3.4835 0,-0.81351 -0.39632,-1.56444 -0.85523,-2.04421 h 2.62827 v -1.39757 h -4.19271 c -0.43805,-0.16687 -0.91781,-0.25031 -1.50187,-0.25031 -2.1485,0 -3.98412,1.41843 -3.98412,3.62951 0,1.20984 0.5632,2.10679 1.25156,2.62827 v 0.0834 c -0.77179,0.52148 -1.20984,1.25155 -1.20984,1.89819 0,0.85523 0.50062,1.37671 1.04297,1.66874 v 0.0834 c -1.08469,0.62578 -1.66875,1.43929 -1.66875,2.2528 0,1.79389 1.71046,2.816 4.67248,2.816 z m -0.1043,-9.03206 c -1.27241,0 -2.33623,-0.93867 -2.33623,-2.39882 0,-1.41843 1.06382,-2.37795 2.33623,-2.37795 1.29328,0 2.33624,0.95952 2.33624,2.37795 0,1.46015 -1.04296,2.39882 -2.33624,2.39882 z m 0.22945,7.7805 c -2.16936,0 -3.31662,-0.66749 -3.31662,-1.73132 0,-0.58406 0.33375,-1.16811 1.29328,-1.6896 0.43804,0.12516 0.95952,0.16688 1.54358,0.16688 h 1.98163 c 1.54359,0 2.31538,0.27117 2.31538,1.23069 0,1.04297 -1.46015,2.02335 -3.81725,2.02335 z"
           style="font-style:normal;font-variant:normal;font-weight:normal;font-stretch:normal;font-size:20.85925865px;font-family:'Source Code Pro';-inkscape-font-specification:'Source Code Pro, Normal';font-variant-ligatures:normal;font-variant-caps:normal;font-variant-numeric:normal;font-feature-settings:normal;text-align:start;writing-mode:lr-tb;text-anchor:start;fill:#ffffff;fill-opacity:1"
           id="path4980" />
        <path
           inkscape:connector-curvature="0"
           d="m 230.23517,269.80856 h 1.71046 v -10.1376 h -6.42465 v 1.39757 h 4.71419 z m 0.6675,-12.26524 c 0.77179,0 1.37671,-0.52148 1.37671,-1.33499 0,-0.79265 -0.60492,-1.335 -1.37671,-1.335 -0.77179,0 -1.37671,0.54235 -1.37671,1.335 0,0.81351 0.60492,1.33499 1.37671,1.33499 z"
           style="font-style:normal;font-variant:normal;font-weight:normal;font-stretch:normal;font-size:20.85925865px;font-family:'Source Code Pro';-inkscape-font-specification:'Source Code Pro, Normal';font-variant-ligatures:normal;font-variant-caps:normal;font-variant-numeric:normal;font-feature-settings:normal;text-align:start;writing-mode:lr-tb;text-anchor:start;fill:#ffffff;fill-opacity:1"
           id="path4982" />
        <path
           inkscape:connector-curvature="0"
           d="m 238.09097,269.80856 h 1.71045 v -7.07128 c 1.18898,-1.2307 2.00249,-1.83562 3.21233,-1.83562 1.66874,0 2.33624,0.91781 2.33624,2.83686 v 6.07004 h 1.71046 v -6.29949 c 0,-2.66999 -1.10554,-4.08842 -3.50436,-4.08842 -1.5853,0 -2.75342,0.85523 -3.81724,1.98163 h -0.0834 l -0.14601,-1.73132 h -1.41843 z"
           style="font-style:normal;font-variant:normal;font-weight:normal;font-stretch:normal;font-size:20.85925865px;font-family:'Source Code Pro';-inkscape-font-specification:'Source Code Pro, Normal';font-variant-ligatures:normal;font-variant-caps:normal;font-variant-numeric:normal;font-feature-settings:normal;text-align:start;writing-mode:lr-tb;text-anchor:start;fill:#ffffff;fill-opacity:1"
           id="path4984" />
        <path
           inkscape:connector-curvature="0"
           d="m 255.54202,270.05888 c 1.62702,0 2.92029,-0.54235 3.92154,-1.20984 l -0.62578,-1.1264 c -0.91781,0.58406 -1.87733,0.95952 -3.08717,0.95952 -2.10678,0 -3.73381,-1.16811 -3.9424,-3.46263 h 7.9891 c 0.0417,-0.27117 0.0834,-0.64664 0.0834,-1.04297 0,-2.85771 -1.71046,-4.75591 -4.63075,-4.75591 -2.71171,0 -5.1731,2.00249 -5.1731,5.29825 0,3.3792 2.41968,5.33998 5.46513,5.33998 z m -0.25031,-9.28237 c 1.73132,0 2.87857,1.0221 3.02459,3.10802 h -6.46637 c 0.31289,-2.00248 1.77304,-3.10802 3.44178,-3.10802 z"
           style="font-style:normal;font-variant:normal;font-weight:normal;font-stretch:normal;font-size:20.85925865px;font-family:'Source Code Pro';-inkscape-font-specification:'Source Code Pro, Normal';font-variant-ligatures:normal;font-variant-caps:normal;font-variant-numeric:normal;font-feature-settings:normal;text-align:start;writing-mode:lr-tb;text-anchor:start;fill:#ffffff;fill-opacity:1"
           id="path4986" />
        <path
           inkscape:connector-curvature="0"
           d="m 268.04943,270.05888 c 1.62702,0 2.92029,-0.54235 3.92154,-1.20984 l -0.62578,-1.1264 c -0.91781,0.58406 -1.87733,0.95952 -3.08717,0.95952 -2.10679,0 -3.73381,-1.16811 -3.9424,-3.46263 h 7.98909 c 0.0417,-0.27117 0.0834,-0.64664 0.0834,-1.04297 0,-2.85771 -1.71046,-4.75591 -4.63075,-4.75591 -2.71171,0 -5.1731,2.00249 -5.1731,5.29825 0,3.3792 2.41967,5.33998 5.46513,5.33998 z m -0.25032,-9.28237 c 1.73132,0 2.87858,1.0221 3.0246,3.10802 h -6.46637 c 0.31289,-2.00248 1.77303,-3.10802 3.44177,-3.10802 z"
           style="font-style:normal;font-variant:normal;font-weight:normal;font-stretch:normal;font-size:20.85925865px;font-family:'Source Code Pro';-inkscape-font-specification:'Source Code Pro, Normal';font-variant-ligatures:normal;font-variant-caps:normal;font-variant-numeric:normal;font-feature-settings:normal;text-align:start;writing-mode:lr-tb;text-anchor:start;fill:#ffffff;fill-opacity:1"
           id="path4988" />
        <path
           inkscape:connector-curvature="0"
           d="m 276.71873,269.80856 h 1.71046 v -5.94488 c 1.20984,-2.10679 2.64913,-2.89944 4.17185,-2.89944 0.79265,0 1.16812,0.10429 1.87733,0.35461 l 0.39633,-1.48101 c -0.62578,-0.31289 -1.25155,-0.41719 -2.00249,-0.41719 -1.87733,0 -3.46264,1.02211 -4.52646,2.64913 h -0.0626 l -0.14601,-2.39882 h -1.41843 z"
           style="font-style:normal;font-variant:normal;font-weight:normal;font-stretch:normal;font-size:20.85925865px;font-family:'Source Code Pro';-inkscape-font-specification:'Source Code Pro, Normal';font-variant-ligatures:normal;font-variant-caps:normal;font-variant-numeric:normal;font-feature-settings:normal;text-align:start;writing-mode:lr-tb;text-anchor:start;fill:#ffffff;fill-opacity:1"
           id="path4990" />
        <path
           inkscape:connector-curvature="0"
           d="m 292.77221,269.80856 h 1.71045 v -10.1376 h -6.42465 v 1.39757 h 4.7142 z m 0.66749,-12.26524 c 0.77179,0 1.37671,-0.52148 1.37671,-1.33499 0,-0.79265 -0.60492,-1.335 -1.37671,-1.335 -0.77179,0 -1.37671,0.54235 -1.37671,1.335 0,0.81351 0.60492,1.33499 1.37671,1.33499 z"
           style="font-style:normal;font-variant:normal;font-weight:normal;font-stretch:normal;font-size:20.85925865px;font-family:'Source Code Pro';-inkscape-font-specification:'Source Code Pro, Normal';font-variant-ligatures:normal;font-variant-caps:normal;font-variant-numeric:normal;font-feature-settings:normal;text-align:start;writing-mode:lr-tb;text-anchor:start;fill:#ffffff;fill-opacity:1"
           id="path4992" />
        <path
           inkscape:connector-curvature="0"
           d="m 300.62801,269.80856 h 1.71046 v -7.07128 c 1.18897,-1.2307 2.00248,-1.83562 3.21232,-1.83562 1.66874,0 2.33624,0.91781 2.33624,2.83686 v 6.07004 h 1.71046 v -6.29949 c 0,-2.66999 -1.10554,-4.08842 -3.50436,-4.08842 -1.5853,0 -2.75342,0.85523 -3.81724,1.98163 h -0.0834 l -0.14601,-1.73132 h -1.41843 z"
           style="font-style:normal;font-variant:normal;font-weight:normal;font-stretch:normal;font-size:20.85925865px;font-family:'Source Code Pro';-inkscape-font-specification:'Source Code Pro, Normal';font-variant-ligatures:normal;font-variant-caps:normal;font-variant-numeric:normal;font-feature-settings:normal;text-align:start;writing-mode:lr-tb;text-anchor:start;fill:#ffffff;fill-opacity:1"
           id="path4994" />
        <path
           inkscape:connector-curvature="0"
           d="m 317.36984,274.48104 c 3.44177,0 5.632,-1.64788 5.632,-3.54608 0,-1.71046 -1.25156,-2.37795 -3.85897,-2.37795 h -2.27366 c -1.33499,0 -2.10678,-0.37547 -2.10678,-1.16812 0,-0.47976 0.29203,-0.85523 0.79265,-1.16812 0.5632,0.25031 1.18898,0.37547 1.71046,0.37547 2.19022,0 3.92154,-1.31414 3.92154,-3.4835 0,-0.81351 -0.39633,-1.56444 -0.85523,-2.04421 h 2.62827 v -1.39757 h -4.19271 c -0.43805,-0.16687 -0.91781,-0.25031 -1.50187,-0.25031 -2.1485,0 -3.98412,1.41843 -3.98412,3.62951 0,1.20984 0.5632,2.10679 1.25156,2.62827 v 0.0834 c -0.7718,0.52148 -1.20984,1.25155 -1.20984,1.89819 0,0.85523 0.50062,1.37671 1.04296,1.66874 v 0.0834 c -1.08468,0.62578 -1.66874,1.43929 -1.66874,2.2528 0,1.79389 1.71046,2.816 4.67248,2.816 z m -0.1043,-9.03206 c -1.27241,0 -2.33624,-0.93867 -2.33624,-2.39882 0,-1.41843 1.06383,-2.37795 2.33624,-2.37795 1.29327,0 2.33624,0.95952 2.33624,2.37795 0,1.46015 -1.04297,2.39882 -2.33624,2.39882 z m 0.22945,7.7805 c -2.16936,0 -3.31662,-0.66749 -3.31662,-1.73132 0,-0.58406 0.33375,-1.16811 1.29327,-1.6896 0.43805,0.12516 0.95953,0.16688 1.54359,0.16688 h 1.98163 c 1.54358,0 2.31538,0.27117 2.31538,1.23069 0,1.04297 -1.46015,2.02335 -3.81725,2.02335 z"
           style="font-style:normal;font-variant:normal;font-weight:normal;font-stretch:normal;font-size:20.85925865px;font-family:'Source Code Pro';-inkscape-font-specification:'Source Code Pro, Normal';font-variant-ligatures:normal;font-variant-caps:normal;font-variant-numeric:normal;font-feature-settings:normal;text-align:start;writing-mode:lr-tb;text-anchor:start;fill:#ffffff;fill-opacity:1"
           id="path4996" />
        <path
           inkscape:connector-curvature="0"
           d="m 325.64282,274.08471 h 1.71046 v -3.42092 l -0.0834,-1.91905 h 0.0626 c 0.89695,0.83437 2.08593,1.31414 3.02459,1.31414 2.44054,0 4.6099,-2.02335 4.6099,-5.46513 0,-3.14975 -1.46015,-5.1731 -4.19271,-5.1731 -1.25156,0 -2.56569,0.64664 -3.50436,1.54359 h -0.0626 l -0.14602,-1.29328 h -1.41843 z m 4.42217,-5.46512 c -0.68836,0 -1.75218,-0.33375 -2.71171,-1.18898 v -5.04794 c 1.04296,-1.04296 2.08593,-1.52273 2.98288,-1.52273 2.02334,0 2.85771,1.50187 2.85771,3.73381 0,2.50311 -1.31413,4.02584 -3.12888,4.02584 z"
           style="font-style:normal;font-variant:normal;font-weight:normal;font-stretch:normal;font-size:20.85925865px;font-family:'Source Code Pro';-inkscape-font-specification:'Source Code Pro, Normal';font-variant-ligatures:normal;font-variant-caps:normal;font-variant-numeric:normal;font-feature-settings:normal;text-align:start;writing-mode:lr-tb;text-anchor:start;fill:#ffffff;fill-opacity:1"
           id="path4998" />
        <path
           inkscape:connector-curvature="0"
           d="m 342.46809,270.05888 c 2.66998,0 5.00622,-1.93992 5.00622,-5.29826 0,-3.40006 -2.33624,-5.33997 -5.00622,-5.33997 -2.66999,0 -5.00622,1.93991 -5.00622,5.33997 0,3.35834 2.33623,5.29826 5.00622,5.29826 z m 0,-1.41843 c -1.93991,0 -3.23319,-1.56445 -3.23319,-3.87983 0,-2.33623 1.29328,-3.92154 3.23319,-3.92154 1.93991,0 3.23318,1.58531 3.23318,3.92154 0,2.31538 -1.29327,3.87983 -3.23318,3.87983 z"
           style="font-style:normal;font-variant:normal;font-weight:normal;font-stretch:normal;font-size:20.85925865px;font-family:'Source Code Pro';-inkscape-font-specification:'Source Code Pro, Normal';font-variant-ligatures:normal;font-variant-caps:normal;font-variant-numeric:normal;font-feature-settings:normal;text-align:start;writing-mode:lr-tb;text-anchor:start;fill:#ffffff;fill-opacity:1"
           id="path5000" />
        <path
           inkscape:connector-curvature="0"
           d="m 354.37057,270.05888 c 1.25156,0 2.46139,-0.73008 3.29576,-1.58531 h 0.0626 l 0.14602,1.33499 h 1.41843 v -14.85179 h -1.71046 v 3.90068 l 0.0834,1.87734 h -0.0626 c -0.87609,-0.83437 -1.81476,-1.31414 -3.0246,-1.31414 -2.39881,0 -4.60989,2.04421 -4.60989,5.33997 0,3.3792 1.75218,5.29826 4.4013,5.29826 z m 0.35461,-1.43929 c -1.87733,0 -2.98288,-1.46015 -2.98288,-3.87983 0,-2.31537 1.41843,-3.87982 3.17061,-3.87982 0.87609,0 1.75218,0.33375 2.66999,1.18898 v 5.04794 c -0.89695,1.00124 -1.85648,1.52273 -2.85772,1.52273 z"
           style="font-style:normal;font-variant:normal;font-weight:normal;font-stretch:normal;font-size:20.85925865px;font-family:'Source Code Pro';-inkscape-font-specification:'Source Code Pro, Normal';font-variant-ligatures:normal;font-variant-caps:normal;font-variant-numeric:normal;font-feature-settings:normal;text-align:start;writing-mode:lr-tb;text-anchor:start;fill:#ffffff;fill-opacity:1"
           id="path5002" />
        <path
           inkscape:connector-curvature="0"
           d="m 368.44243,270.05888 c 1.50187,0 2.89944,-0.58406 4.02584,-1.58531 l -0.77179,-1.10554 c -0.83437,0.70922 -1.87734,1.27242 -3.12889,1.27242 -2.33624,0 -3.90068,-1.56445 -3.90068,-3.87983 0,-2.33623 1.60616,-3.92154 3.9424,-3.92154 1.06382,0 1.93991,0.43805 2.77428,1.16812 l 0.85523,-1.10554 c -0.83437,-0.81351 -2.04421,-1.48101 -3.69209,-1.48101 -3.06631,0 -5.65286,1.93991 -5.65286,5.33997 0,3.35834 2.37795,5.29826 5.54856,5.29826 z"
           style="font-style:normal;font-variant:normal;font-weight:normal;font-stretch:normal;font-size:20.85925865px;font-family:'Source Code Pro';-inkscape-font-specification:'Source Code Pro, Normal';font-variant-ligatures:normal;font-variant-caps:normal;font-variant-numeric:normal;font-feature-settings:normal;text-align:start;writing-mode:lr-tb;text-anchor:start;fill:#ffffff;fill-opacity:1"
           id="path5004" />
        <path
           inkscape:connector-curvature="0"
           d="m 378.86391,270.05888 c 1.43929,0 2.87857,-0.75094 4.00497,-1.62703 h 0.0626 l 0.14602,1.37671 h 1.39757 v -6.21606 c 0,-2.52397 -1.335,-4.17185 -4.10928,-4.17185 -1.77303,0 -3.48349,0.79266 -4.5056,1.46015 l 0.6675,1.16812 c 0.93867,-0.58406 2.23194,-1.20984 3.54607,-1.20984 1.96077,0 2.64913,1.16812 2.69085,2.54483 -5.23568,0.41719 -7.34246,1.52273 -7.34246,3.79639 0,1.81475 1.54358,2.87858 3.44178,2.87858 z m 0.4589,-1.37672 c -1.16812,0 -2.23194,-0.47976 -2.23194,-1.62702 0,-1.33499 1.33499,-2.19022 5.67372,-2.54483 v 2.66999 c -1.14726,0.95952 -2.29452,1.50186 -3.44178,1.50186 z"
           style="font-style:normal;font-variant:normal;font-weight:normal;font-stretch:normal;font-size:20.85925865px;font-family:'Source Code Pro';-inkscape-font-specification:'Source Code Pro, Normal';font-variant-ligatures:normal;font-variant-caps:normal;font-variant-numeric:normal;font-feature-settings:normal;text-align:start;writing-mode:lr-tb;text-anchor:start;fill:#ffffff;fill-opacity:1"
           id="path5006" />
        <path
           inkscape:connector-curvature="0"
           d="m 392.70631,270.05888 c 2.89944,0 4.5056,-1.37672 4.5056,-3.0246 0,-1.54358 -0.81351,-2.39881 -4.19271,-3.12889 -2.06506,-0.43804 -2.94115,-0.81351 -2.94115,-1.6896 0,-0.77179 0.60492,-1.46014 2.33624,-1.46014 1.29327,0 2.46139,0.41718 3.40005,1.06382 l 0.83437,-1.10554 c -1.00124,-0.68836 -2.54483,-1.29328 -4.08841,-1.29328 -2.77428,0 -4.21357,1.25156 -4.21357,2.87858 0,1.52273 1.33499,2.41967 3.96326,2.96202 2.75342,0.5632 3.17061,1.10554 3.17061,1.87733 0,0.85523 -0.85523,1.5853 -2.56569,1.5853 -1.87734,0 -3.23319,-0.54234 -4.40131,-1.37671 l -0.79265,1.1264 c 1.2307,0.85523 3.00374,1.58531 4.98536,1.58531 z"
           style="font-style:normal;font-variant:normal;font-weight:normal;font-stretch:normal;font-size:20.85925865px;font-family:'Source Code Pro';-inkscape-font-specification:'Source Code Pro, Normal';font-variant-ligatures:normal;font-variant-caps:normal;font-variant-numeric:normal;font-feature-settings:normal;text-align:start;writing-mode:lr-tb;text-anchor:start;fill:#ffffff;fill-opacity:1"
           id="path5008" />
        <path
           inkscape:connector-curvature="0"
           d="m 406.96589,270.05888 c 1.27242,0 2.2528,-0.27118 3.17061,-0.60492 l -0.37547,-1.25156 c -0.73007,0.27117 -1.481,0.4589 -2.44053,0.4589 -1.96077,0 -2.56569,-0.95952 -2.56569,-2.77428 v -4.81849 h 4.98536 v -1.39757 h -4.98536 v -3.25404 h -1.41843 l -0.22945,3.25404 -2.9203,0.1043 v 1.29327 h 2.85772 v 4.79763 c 0,2.50312 0.95953,4.19272 3.92154,4.19272 z"
           style="font-style:normal;font-variant:normal;font-weight:normal;font-stretch:normal;font-size:20.85925865px;font-family:'Source Code Pro';-inkscape-font-specification:'Source Code Pro, Normal';font-variant-ligatures:normal;font-variant-caps:normal;font-variant-numeric:normal;font-feature-settings:normal;text-align:start;writing-mode:lr-tb;text-anchor:start;fill:#ffffff;fill-opacity:1"
           id="path5010" />
        <path
           inkscape:connector-curvature="0"
           d="m 417.51254,270.05888 c 0.93866,0 1.6896,-0.70922 1.6896,-1.75218 0,-1.06382 -0.75094,-1.77304 -1.6896,-1.77304 -0.93867,0 -1.6896,0.70922 -1.6896,1.77304 0,1.04296 0.75093,1.75218 1.6896,1.75218 z"
           style="font-style:normal;font-variant:normal;font-weight:normal;font-stretch:normal;font-size:20.85925865px;font-family:'Source Code Pro';-inkscape-font-specification:'Source Code Pro, Normal';font-variant-ligatures:normal;font-variant-caps:normal;font-variant-numeric:normal;font-feature-settings:normal;text-align:start;writing-mode:lr-tb;text-anchor:start;fill:#ffffff;fill-opacity:1"
           id="path5012" />
        <path
           inkscape:connector-curvature="0"
           d="m 430.97948,270.05888 c 1.50187,0 2.89944,-0.58406 4.02584,-1.58531 l -0.7718,-1.10554 c -0.83437,0.70922 -1.87733,1.27242 -3.12888,1.27242 -2.33624,0 -3.90069,-1.56445 -3.90069,-3.87983 0,-2.33623 1.60617,-3.92154 3.9424,-3.92154 1.06383,0 1.93992,0.43805 2.77429,1.16812 l 0.85523,-1.10554 c -0.83438,-0.81351 -2.04421,-1.48101 -3.69209,-1.48101 -3.06631,0 -5.65286,1.93991 -5.65286,5.33997 0,3.35834 2.37795,5.29826 5.54856,5.29826 z"
           style="font-style:normal;font-variant:normal;font-weight:normal;font-stretch:normal;font-size:20.85925865px;font-family:'Source Code Pro';-inkscape-font-specification:'Source Code Pro, Normal';font-variant-ligatures:normal;font-variant-caps:normal;font-variant-numeric:normal;font-feature-settings:normal;text-align:start;writing-mode:lr-tb;text-anchor:start;fill:#ffffff;fill-opacity:1"
           id="path5014" />
        <path
           inkscape:connector-curvature="0"
           d="m 442.52734,270.05888 c 2.66998,0 5.00622,-1.93992 5.00622,-5.29826 0,-3.40006 -2.33624,-5.33997 -5.00622,-5.33997 -2.66999,0 -5.00622,1.93991 -5.00622,5.33997 0,3.35834 2.33623,5.29826 5.00622,5.29826 z m 0,-1.41843 c -1.93991,0 -3.23319,-1.56445 -3.23319,-3.87983 0,-2.33623 1.29328,-3.92154 3.23319,-3.92154 1.93991,0 3.23318,1.58531 3.23318,3.92154 0,2.31538 -1.29327,3.87983 -3.23318,3.87983 z"
           style="font-style:normal;font-variant:normal;font-weight:normal;font-stretch:normal;font-size:20.85925865px;font-family:'Source Code Pro';-inkscape-font-specification:'Source Code Pro, Normal';font-variant-ligatures:normal;font-variant-caps:normal;font-variant-numeric:normal;font-feature-settings:normal;text-align:start;writing-mode:lr-tb;text-anchor:start;fill:#ffffff;fill-opacity:1"
           id="path5016" />
        <path
           inkscape:connector-curvature="0"
           d="m 449.98681,269.80856 h 1.71046 v -7.34245 c 0.50063,-1.04297 0.95953,-1.56445 1.66874,-1.56445 0.75094,0 1.04297,0.60492 1.04297,1.77304 v 7.13386 h 1.5853 v -7.34245 c 0.54234,-1.04297 0.91781,-1.56445 1.62702,-1.56445 0.75094,0 1.08468,0.60492 1.08468,1.77304 v 7.13386 h 1.71046 v -7.25902 c 0,-2.02335 -0.83437,-3.12889 -2.2528,-3.12889 -1.16811,0 -1.79389,0.6675 -2.37795,1.75218 -0.29203,-1.16812 -0.91781,-1.75218 -1.91905,-1.75218 -1.16812,0 -1.7939,0.64664 -2.31538,1.58531 h -0.0417 l -0.14601,-1.335 h -1.37672 z"
           style="font-style:normal;font-variant:normal;font-weight:normal;font-stretch:normal;font-size:20.85925865px;font-family:'Source Code Pro';-inkscape-font-specification:'Source Code Pro, Normal';font-variant-ligatures:normal;font-variant-caps:normal;font-variant-numeric:normal;font-feature-settings:normal;text-align:start;writing-mode:lr-tb;text-anchor:start;fill:#ffffff;fill-opacity:1"
           id="path5018" />
      </g>
      <g
         transform="matrix(0.26458333,0,0,0.26458333,-115.17217,108.96034)"
         style="display:inline"
         inkscape:label="Bottom"
         id="layer3-3" />
      <g
         transform="matrix(0,-0.09345218,0.09345218,0,-175.11883,115.60925)"
         id="g4340"
         inkscape:export-xdpi="490.91"
         inkscape:export-ydpi="490.91">
        <flowRoot
           transform="translate(-96.533124,-631.20017)"
           style="font-style:normal;font-variant:normal;font-weight:normal;font-stretch:normal;line-height:0.01%;font-family:'Source Code Pro';-inkscape-font-specification:'Source Code Pro, Normal';text-align:start;letter-spacing:0px;word-spacing:0px;writing-mode:lr-tb;text-anchor:start;fill:#ffffff;fill-opacity:1;stroke:#ffffff;stroke-width:1px;stroke-linecap:butt;stroke-linejoin:miter;stroke-opacity:1"
           id="flowRoot4331"
           xml:space="preserve"><flowRegion
             id="flowRegion4333"
             style="fill:url(#linearGradient9404);fill-opacity:1"><rect
               style="font-style:normal;font-variant:normal;font-weight:normal;font-stretch:normal;font-size:50px;line-height:125%;font-family:'Source Code Pro';-inkscape-font-specification:'Source Code Pro, Normal';text-align:start;writing-mode:lr-tb;text-anchor:start;fill:#ffffff;fill-opacity:1;stroke:#ffffff;stroke-opacity:1"
               y="557.58575"
               x="209.0488"
               height="99.904907"
               width="805.29407"
               id="rect4335" /></flowRegion><flowPara
             id="flowPara4337"
             style="font-size:50px;line-height:1.25;fill:#ffffff;fill-opacity:1">Data</flowPara></flowRoot>        <flowRoot
           transform="translate(87.534426,-842.82864)"
           style="font-style:normal;font-variant:normal;font-weight:normal;font-stretch:normal;line-height:0.01%;font-family:'Source Code Pro';-inkscape-font-specification:'Source Code Pro, Normal';text-align:start;letter-spacing:0px;word-spacing:0px;writing-mode:lr-tb;text-anchor:start;fill:#ffffff;fill-opacity:1;stroke:#ffffff;stroke-width:1px;stroke-linecap:butt;stroke-linejoin:miter;stroke-opacity:1"
           id="flowRoot4339"
           xml:space="preserve"><flowRegion
             id="flowRegion4341"
             style="fill:url(#linearGradient9406);fill-opacity:1"><rect
               style="font-style:normal;font-variant:normal;font-weight:normal;font-stretch:normal;font-size:50px;line-height:125%;font-family:'Source Code Pro';-inkscape-font-specification:'Source Code Pro, Normal';text-align:start;writing-mode:lr-tb;text-anchor:start;fill:#ffffff;fill-opacity:1;stroke:#ffffff;stroke-opacity:1"
               y="837.9314"
               x="85.743896"
               height="73.230911"
               width="578.0011"
               id="rect4343" /></flowRegion><flowPara
             id="flowPara4345"
             style="font-size:50px;line-height:1.25;fill:#ffffff;fill-opacity:1">Engineering</flowPara></flowRoot>        <flowRoot
           transform="translate(70.801016,-839.87568)"
           style="font-style:normal;font-variant:normal;font-weight:normal;font-stretch:normal;line-height:0.01%;font-family:'Source Code Pro';-inkscape-font-specification:'Source Code Pro, Normal';text-align:start;letter-spacing:0px;word-spacing:0px;writing-mode:lr-tb;text-anchor:start;fill:#ffffff;fill-opacity:1;stroke:#ffffff;stroke-width:1px;stroke-linecap:butt;stroke-linejoin:miter;stroke-opacity:1"
           id="flowRoot4347"
           xml:space="preserve"><flowRegion
             id="flowRegion4349"
             style="fill:url(#linearGradient5880);fill-opacity:1"><rect
               style="font-style:normal;font-variant:normal;font-weight:normal;font-stretch:normal;font-size:50px;line-height:125%;font-family:'Source Code Pro';-inkscape-font-specification:'Source Code Pro, Normal';text-align:start;writing-mode:lr-tb;text-anchor:start;fill:#ffffff;fill-opacity:1;stroke:#ffffff;stroke-opacity:1"
               y="910.52362"
               x="153.50352"
               height="71.950439"
               width="523.27594"
               id="rect4351" /></flowRegion><flowPara
             id="flowPara4353"
             style="font-size:50px;line-height:1.25;fill:#ffffff;fill-opacity:1">Podcast</flowPara></flowRoot>        <g
           style="stroke:#ffffff;stroke-opacity:0.98823529"
           transform="translate(17.731073,-69.124859)"
           id="g4309">
          <path
             style="fill:#666666;stroke:#ffffff;stroke-width:2;stroke-miterlimit:10;stroke-opacity:0.98823529"
             inkscape:connector-curvature="0"
             d="m 142,192 v -40 c 0,-5.52 13.43,-10 30,-10 16.57,0 30,4.48 30,10 v 40 c 0,5.52 -13.43,10 -30,10 -16.57,0 -30,-4.48 -30,-10 z"
             stroke-miterlimit="10"
             pointer-events="none"
             id="path4311-3" />
          <path
             style="fill:none;stroke:#ffffff;stroke-width:2;stroke-miterlimit:10;stroke-opacity:0.98823529"
             inkscape:connector-curvature="0"
             d="m 142,152 c 0,5.52 13.43,10 30,10 16.57,0 30,-4.48 30,-10"
             stroke-miterlimit="10"
             pointer-events="none"
             id="path4313-1" />
          <path
             style="fill:none;stroke:#ffffff;stroke-width:3;stroke-miterlimit:10;stroke-opacity:0.98823529"
             inkscape:connector-curvature="0"
             d="M 47,52 H 42 V 92 H 72.9"
             stroke-miterlimit="10"
             pointer-events="none"
             id="path4315" />
          <path
             style="fill:#000000;stroke:#ffffff;stroke-width:3;stroke-miterlimit:10;stroke-opacity:0.98823529"
             inkscape:connector-curvature="0"
             d="m 79.65,92 -9,4.5 2.25,-4.5 -2.25,-4.5 z"
             stroke-miterlimit="10"
             pointer-events="none"
             id="path4317" />
          <path
             style="fill:#666666;stroke:#ffffff;stroke-width:2;stroke-miterlimit:10;stroke-opacity:0.98823529"
             inkscape:connector-curvature="0"
             d="M 19.65,6.25 C 20.7,3.58 22.4,2.03 24.21,2.1 h 62.87 c 1.43,-0.03 2.81,0.43 3.7,1.24 0.9,0.82 1.22,1.9 0.86,2.91 l -17.32,41.5 c -1.05,2.67 -2.75,4.22 -4.55,4.15 H 5.98 C 4.71,51.75 3.59,51.21 2.89,50.42 2.2,49.62 2,48.66 2.34,47.75 Z"
             stroke-miterlimit="10"
             pointer-events="none"
             id="path4319" />
          <path
             style="fill:none;stroke:#ffffff;stroke-width:3;stroke-miterlimit:10;stroke-opacity:0.98823529"
             inkscape:connector-curvature="0"
             d="m 110,122 v 50 h 21.9"
             stroke-miterlimit="10"
             pointer-events="none"
             id="path4321" />
          <path
             style="fill:#000000;stroke:#ffffff;stroke-width:3;stroke-miterlimit:10;stroke-opacity:0.98823529"
             inkscape:connector-curvature="0"
             d="m 138.65,172 -9,4.5 2.25,-4.5 -2.25,-4.5 z"
             stroke-miterlimit="10"
             pointer-events="none"
             id="path4323" />
          <path
             style="fill:#666666;stroke:#ffffff;stroke-width:2;stroke-miterlimit:10;stroke-opacity:0.98823529"
             inkscape:connector-curvature="0"
             d="m 65.5,122 h 87.99 c 1.17,-0.05 2.24,-0.68 2.84,-1.67 0.6,-0.99 0.66,-2.22 0.16,-3.26 l -45,-54.24 c -1.2,-0.83 -2.79,-0.83 -3.99,0 l -45,54.24 c -0.5,1.04 -0.44,2.27 0.16,3.26 0.6,0.99 1.67,1.62 2.84,1.67 z"
             stroke-miterlimit="10"
             pointer-events="none"
             id="path4325" />
        </g>
      </g>
      <text
         transform="rotate(-90)"
         id="text9483"
         y="-44.562275"
         x="-91.377357"
         style="font-style:normal;font-variant:normal;font-weight:normal;font-stretch:normal;font-size:3.43925047px;line-height:125%;font-family:'Source Code Pro';-inkscape-font-specification:'Source Code Pro, Normal';font-variant-ligatures:normal;font-variant-caps:normal;font-variant-numeric:normal;font-feature-settings:normal;text-align:center;letter-spacing:0px;word-spacing:0px;writing-mode:lr-tb;text-anchor:middle;fill:#000000;fill-opacity:1;stroke:none;stroke-width:0.1719625px;stroke-linecap:butt;stroke-linejoin:miter;stroke-opacity:1"
         xml:space="preserve"><tspan
           style="font-style:normal;font-variant:normal;font-weight:normal;font-stretch:normal;font-size:3.43925047px;font-family:'Source Code Pro';-inkscape-font-specification:'Source Code Pro, Normal';font-variant-ligatures:normal;font-variant-caps:normal;font-variant-numeric:normal;font-feature-settings:normal;text-align:center;writing-mode:lr-tb;text-anchor:middle;fill:#ffffff;fill-opacity:1;stroke-width:0.1719625px"
           y="-44.562275"
           x="-91.377357"
           id="tspan9481"
           sodipodi:role="line">The Show About</tspan><tspan
           id="tspan9485"
           style="font-style:normal;font-variant:normal;font-weight:normal;font-stretch:normal;font-size:3.43925047px;font-family:'Source Code Pro';-inkscape-font-specification:'Source Code Pro, Normal';font-variant-ligatures:normal;font-variant-caps:normal;font-variant-numeric:normal;font-feature-settings:normal;text-align:center;writing-mode:lr-tb;text-anchor:middle;fill:#ffffff;fill-opacity:1;stroke-width:0.1719625px"
           y="-40.26321"
           x="-91.377357"
           sodipodi:role="line">Modern Data Management</tspan></text>
    </g>
  </g>
  <g
     inkscape:groupmode="layer"
     id="layer4"
     inkscape:label="Guides"
     style="display:none"
     transform="translate(186.01886,37.333895)">
    <g
       id="g9674"
       transform="rotate(90,-108.19326,40.507637)">
      <path
         inkscape:connector-curvature="0"
         id="path2514"
         style="fill:none;stroke:#343596;stroke-width:0.35313058;stroke-linecap:butt;stroke-linejoin:miter;stroke-miterlimit:4;stroke-dasharray:1.25976942;stroke-dashoffset:0;stroke-opacity:1"
         d="M -32.031368,116.7298 H -184.40597 V 65.929798 h 152.374602 z" />
      <path
         inkscape:connector-curvature="0"
         id="path2516"
         style="fill:#ee2736;fill-opacity:1;fill-rule:nonzero;stroke:none;stroke-width:0.35277778"
         d="m -167.60069,72.64704 h -15.24318 v -5.129742 h 15.24318 z" />
      <text
         y="71.029129"
         x="-180.84912"
         id="text2520"
         style="font-variant:normal;font-weight:bold;font-stretch:normal;font-size:2.46944427px;font-family:Arial;-inkscape-font-specification:Arial-BoldMT;writing-mode:lr-tb;fill:#ffffff;fill-opacity:1;fill-rule:nonzero;stroke:none;stroke-width:0.35277778">
        <tspan
           style="stroke-width:0.35277778"
           id="tspan2518"
           sodipodi:role="line"
           y="71.029129"
           x="-180.84912 -179.4761 -178.1031 -177.28078 -175.90776 -175.22125 -173.98654 -172.47771 -170.96887">safe zone</tspan>
      </text>
      <path
         inkscape:connector-curvature="0"
         id="path2530"
         style="fill:#4dbd38;fill-opacity:1;fill-rule:nonzero;stroke:none;stroke-width:0.35277778"
         d="M -30.367668,64.342298 H -186.01886 V 118.3173 H -30.367668 Z M -30.74373,117.94159 H -185.64316 V 64.71836 h 154.89943 z" />
      <path
         inkscape:connector-curvature="0"
         id="path2532"
         style="fill:#ee2736;fill-opacity:1;fill-rule:nonzero;stroke:none;stroke-width:0.35277778"
         d="M -33.593468,67.517298 H -182.84387 v 47.571022 h 149.250402 z m -0.352778,47.218242 H -182.49109 V 67.870076 h 148.544844 z" />
    </g>
  </g>
</svg>
